<svg width="91" height="78" viewBox="0 0 91 78" fill="none" xmlns="http://www.w3.org/2000/svg">
<mask id="path-1-inside-1_1404_1883" fill="white">
<path d="M23.4023 26.3928L43.9517 36.6674V13.5494L23.4023 0.706055V26.3928Z"/>
<path d="M46.5204 13.5494V36.6674L67.0697 26.3928V0.706055L46.5204 13.5494Z"/>
<path d="M67.0697 52.0795L46.5204 41.8048V67.4915L67.0697 77.7662V52.0795Z"/>
<path d="M43.9517 67.4915V41.8048L23.4023 52.0795V77.7662L43.9517 67.4915Z"/>
<path d="M67.0697 28.9614L46.5204 39.2361L67.0697 49.5108L90.1877 39.2361L67.0697 28.9614Z"/>
<path d="M23.4023 28.9614L43.9517 39.2361L20.8337 49.5108L0.284302 39.2361L23.4023 28.9614Z"/>
</mask>
<path d="M43.9517 36.6674L27.8693 68.8323L79.9131 94.8542V36.6674H43.9517ZM23.4023 26.3928H-12.559V48.6181L7.31992 58.5576L23.4023 26.3928ZM23.4023 0.706055L42.4618 -29.7891L-12.559 -64.1772V0.706055H23.4023ZM43.9517 13.5494H79.9131V-6.3821L63.0112 -16.9458L43.9517 13.5494ZM46.5204 36.6674H10.559V94.8542L62.6028 68.8323L46.5204 36.6674ZM46.5204 13.5494L27.4609 -16.9458L10.559 -6.3821V13.5494H46.5204ZM67.0697 0.706055H103.031V-64.1772L48.0102 -29.7891L67.0697 0.706055ZM67.0697 26.3928L83.1521 58.5576L103.031 48.6181V26.3928H67.0697ZM46.5204 41.8048L62.6028 9.63994L10.559 -16.382V41.8048H46.5204ZM67.0697 52.0795H103.031V29.8541L83.1521 19.9146L67.0697 52.0795ZM67.0697 77.7662L50.9873 109.931L103.031 135.953V77.7662H67.0697ZM46.5204 67.4915H10.559V89.7168L30.4379 99.6563L46.5204 67.4915ZM43.9517 41.8048H79.9131V-16.382L27.8693 9.63994L43.9517 41.8048ZM43.9517 67.4915L60.0341 99.6563L79.9131 89.7168V67.4915H43.9517ZM23.4023 77.7662H-12.559V135.953L39.4847 109.931L23.4023 77.7662ZM23.4023 52.0795L7.31991 19.9146L-12.559 29.8541V52.0795H23.4023ZM46.5204 39.2361L30.4379 7.07127L-33.8917 39.2361L30.4379 71.4009L46.5204 39.2361ZM67.0697 28.9614L81.675 -3.9005L66.1667 -10.7931L50.9873 -3.20341L67.0697 28.9614ZM90.1877 39.2361L104.793 72.098L178.732 39.2361L104.793 6.37418L90.1877 39.2361ZM67.0697 49.5108L50.9873 81.6756L66.1667 89.2653L81.675 82.3727L67.0697 49.5108ZM43.9517 39.2361L58.557 72.098L128.191 41.1496L60.0341 7.07127L43.9517 39.2361ZM23.4023 28.9614L39.4847 -3.20341L24.3054 -10.7931L8.79703 -3.9005L23.4023 28.9614ZM0.284302 39.2361L-14.321 6.37418L-83.9549 37.3226L-15.7981 71.4009L0.284302 39.2361ZM20.8337 49.5108L4.75125 81.6756L19.9306 89.2653L35.439 82.3727L20.8337 49.5108ZM60.0341 4.5026L39.4847 -5.77208L7.31992 58.5576L27.8693 68.8323L60.0341 4.5026ZM59.3637 26.3928V0.706055H-12.559V26.3928H59.3637ZM4.34284 31.2012L24.8922 44.0446L63.0112 -16.9458L42.4618 -29.7891L4.34284 31.2012ZM7.99031 13.5494V36.6674H79.9131V13.5494H7.99031ZM82.4817 36.6674V13.5494H10.559V36.6674H82.4817ZM65.5798 44.0446L86.1292 31.2012L48.0102 -29.7891L27.4609 -16.9458L65.5798 44.0446ZM31.1083 0.706055V26.3928H103.031V0.706055H31.1083ZM50.9873 -5.77208L30.4379 4.5026L62.6028 68.8323L83.1521 58.5576L50.9873 -5.77208ZM30.4379 73.9696L50.9873 84.2443L83.1521 19.9146L62.6028 9.63994L30.4379 73.9696ZM31.1083 52.0795V77.7662H103.031V52.0795H31.1083ZM83.1521 45.6013L62.6028 35.3266L30.4379 99.6563L50.9873 109.931L83.1521 45.6013ZM82.4817 67.4915V41.8048H10.559V67.4915H82.4817ZM7.99031 41.8048V67.4915H79.9131V41.8048H7.99031ZM27.8693 35.3266L7.31991 45.6013L39.4847 109.931L60.0341 99.6563L27.8693 35.3266ZM59.3637 77.7662V52.0795H-12.559V77.7662H59.3637ZM39.4847 84.2443L60.0341 73.9696L27.8693 9.63994L7.31991 19.9146L39.4847 84.2443ZM62.6028 71.4009L83.1521 61.1263L50.9873 -3.20341L30.4379 7.07127L62.6028 71.4009ZM52.4644 61.8233L75.5824 72.098L104.793 6.37418L81.675 -3.9005L52.4644 61.8233ZM75.5825 6.37418L52.4644 16.6489L81.675 82.3727L104.793 72.098L75.5825 6.37418ZM83.1521 17.3459L62.6028 7.07127L30.4379 71.4009L50.9873 81.6756L83.1521 17.3459ZM60.0341 7.07127L39.4847 -3.20341L7.31991 61.1263L27.8693 71.4009L60.0341 7.07127ZM8.79703 -3.9005L-14.321 6.37418L14.8896 72.098L38.0076 61.8233L8.79703 -3.9005ZM-15.7981 71.4009L4.75125 81.6756L36.9161 17.3459L16.3667 7.07127L-15.7981 71.4009ZM35.439 82.3727L58.557 72.098L29.3464 6.37418L6.22836 16.6489L35.439 82.3727Z" fill="url(#paint0_linear_1404_1883)" mask="url(#path-1-inside-1_1404_1883)"/>
<defs>
<linearGradient id="paint0_linear_1404_1883" x1="-0.000121117" y1="0.999999" x2="89.9999" y2="78" gradientUnits="userSpaceOnUse">
<stop stop-color="white"/>
<stop offset="1" stop-color="white" stop-opacity="0"/>
</linearGradient>
</defs>
</svg>
