<svg width="88" height="94" viewBox="0 0 88 94" fill="none" xmlns="http://www.w3.org/2000/svg">
<path fill-rule="evenodd" clip-rule="evenodd" d="M80.7055 78.0602C80.7055 78.0602 68.8527 87.5665 45.266 83.6326C27.3711 80.6479 17.8268 60.9215 17.8268 50.3182C17.8268 25.1787 36.4333 19.4578 49.0126 19.4578C61.5917 19.4578 69.7978 31.7218 69.7978 41.2173C69.7978 50.7128 63.0819 59.0182 52.6305 59.0182C42.1792 59.0182 39.0839 51.6809 39.0839 44.9351C39.0839 38.1895 44.5415 35.8128 49.519 35.8128C54.4964 35.8128 56.2007 40.0623 56.2007 43.7145C56.2007 47.367 53.3669 48.6749 51.0033 48.6749C48.6397 48.6749 48.406 47.4824 47.5014 46.2292C46.5967 44.9762 48.6551 40.2329 45.266 40.2329C41.8769 40.2329 41.2451 45.6858 41.2451 45.6858C41.2451 45.6858 42.4807 56.2118 52.6305 56.0302C62.7805 55.8484 67.5956 48.0016 66.1962 40.2329C64.7969 32.4639 57.2572 24.2086 44.0249 25.8768C30.7926 27.5449 25.39 40.9149 27.7714 55.2029C30.1527 69.4911 47.2697 77.7697 60.7281 74.7913C74.1866 71.8128 87.591 62.0695 87.591 37.3664C87.591 12.6631 66.1962 -2.18578 40.685 0.261405C15.1737 2.70858 -0.66255 25.0122 0.351108 51.8105C1.36477 78.6087 26.7932 93.2039 48.2955 93.9561C69.7978 94.7084 82.9797 82.2613 82.9797 82.2613C82.9797 82.2613 85.9441 79.6178 84.7818 77.5534C83.6197 75.4891 80.7055 78.0602 80.7055 78.0602Z" fill="url(#paint0_linear_1404_3963)"/>
<defs>
<linearGradient id="paint0_linear_1404_3963" x1="-8.43118" y1="7.04712" x2="64.1601" y2="112.618" gradientUnits="userSpaceOnUse">
<stop stop-color="white"/>
<stop offset="1" stop-color="white" stop-opacity="0"/>
</linearGradient>
</defs>
</svg>
