<svg width="94" height="75" viewBox="0 0 94 75" fill="none" xmlns="http://www.w3.org/2000/svg">
<path fill-rule="evenodd" clip-rule="evenodd" d="M72.5439 35.9388C72.5386 35.9314 72.5364 35.9223 72.5378 35.9133L78.5347 0.944861C78.5375 0.92876 78.5516 0.916992 78.5678 0.916992H80.4658C80.4805 0.916992 80.4933 0.926484 80.4977 0.940437L94.0084 43.7184C94.0126 43.7316 94.008 43.7463 93.997 43.7549L84.0354 51.5325C84.0205 51.5441 83.999 51.5411 83.9878 51.5259L72.5439 35.9388ZM-0.18457 59.1203C-0.18457 59.1348 -0.175244 59.1476 -0.161458 59.1522L20.3733 65.8664C20.3833 65.8697 20.3943 65.8681 20.4029 65.8622L66.303 34.1739C66.3107 34.1686 66.3158 34.1603 66.3171 34.1511L71.2393 1.12416C71.2424 1.10389 71.2266 1.08568 71.2062 1.08568H30.5501C30.54 1.08568 30.5307 1.09012 30.5242 1.09781L-0.176855 38.134C-0.181842 38.1401 -0.18457 38.1476 -0.18457 38.1555V59.1203ZM28.9303 67.5771L51.3641 74.9258C51.3742 74.9291 51.3854 74.9275 51.3941 74.9213L78.1031 55.7627C78.118 55.7522 78.1217 55.7318 78.1116 55.7168L68.0991 40.8172C68.0886 40.8016 68.0677 40.7976 68.0523 40.8082L28.9303 67.5771Z" fill="url(#paint0_linear_1404_6179)"/>
<defs>
<linearGradient id="paint0_linear_1404_6179" x1="-9.61241" y1="6.46688" x2="39.4626" y2="104.278" gradientUnits="userSpaceOnUse">
<stop stop-color="white"/>
<stop offset="1" stop-color="white" stop-opacity="0"/>
</linearGradient>
</defs>
</svg>
