<svg width="94" height="82" viewBox="0 0 94 82" fill="none" xmlns="http://www.w3.org/2000/svg">
<path fill-rule="evenodd" clip-rule="evenodd" d="M32.8104 81.7078C46.5805 81.7078 58.3694 74.0547 63.2363 63.2058C63.2958 63.0734 43.6966 68.2992 44.3215 66.4519C44.6006 65.627 56.615 61.238 65.3682 56.1187C70.3992 53.1763 72.716 46.9475 72.716 46.9475C72.716 46.9475 64.24 51.0627 59.9551 52.1066C51.3203 54.2106 43.7194 53.9841 43.7194 53.7649C43.7194 53.2908 56.3405 50.8927 73.8825 40.203C82.1338 35.1749 84.3749 26.514 84.3749 26.514C84.3749 26.514 75.3034 31.9176 69.8194 33.7015C56.8144 37.9321 44.9465 39.207 44.9465 38.6345C44.9465 37.4089 55.3906 34.5369 66.4639 29.1714C72.2214 26.3817 77.2076 22.737 82.9858 18.6838C92.4406 12.0522 93.9998 0.241211 93.9998 0.241211C93.9998 0.241211 84.6747 6.25576 80.124 8.25313C61.3462 16.495 44.7655 20.8182 32.8104 21.7542C14.7639 23.1671 0 35.7585 0 52.1066C0 68.4549 14.6897 81.7078 32.8104 81.7078Z" fill="url(#paint0_linear_1404_6972)"/>
<defs>
<linearGradient id="paint0_linear_1404_6972" x1="6" y1="5.99963" x2="88" y2="80.4996" gradientUnits="userSpaceOnUse">
<stop stop-color="white"/>
<stop offset="1" stop-color="white" stop-opacity="0"/>
</linearGradient>
</defs>
</svg>
